<svg xmlns="http://www.w3.org/2000/svg" width="256" height="256" viewBox="0 0 256 256" fill="none">
	<circle cx="128" cy="128" r="105" fill="#3F51B5"/>
	<g clip-path="url(#footprint)">
		<path d="M134.094 146.506C134.442 129.184 163.693 120.569 153.961 100.94C141.885 76.5686 115.28 83.0414 97.5371 97.4335C79.8308 111.826 74.713 138.586 96.6765 165.283C118.677 191.98 161.404 213.321 177.078 190.057C186.737 175.702 133.49 177.084 134.094 146.506Z" fill="white"/>
		<path d="M122.43 50.1921C130.057 48.9561 137.244 54.0739 138.48 61.6453C139.725 69.2168 134.57 76.3487 126.944 77.5847C119.318 78.8115 112.131 73.6662 110.886 66.1223C109.65 58.5509 114.804 51.4189 122.43 50.1921Z" fill="white"/>
		<path d="M96.2371 67.2943C101.51 66.4429 106.436 69.9768 107.297 75.2136C108.157 80.423 104.596 85.3485 99.3499 86.2C94.1039 87.0514 89.1509 83.5175 88.2903 78.2806C87.4297 73.0713 90.9911 68.1458 96.2371 67.2943Z" fill="white"/>
		<path d="M79.9315 83.7006C84.4451 82.9773 88.6657 86.0077 89.3981 90.4572C90.1305 94.9066 87.0818 99.1089 82.5957 99.8321C78.1188 100.555 73.889 97.525 73.1566 93.0756C72.4242 88.6261 75.4454 84.433 79.9315 83.7006Z" fill="white"/>
		<path d="M71.0234 101.535C74.2735 101.031 77.3497 103.21 77.8899 106.424C78.4026 109.674 76.2053 112.704 72.9643 113.245C69.6959 113.785 66.638 111.569 66.0979 108.356C65.5577 105.133 67.7825 102.075 71.0234 101.535Z" fill="white"/>
		<path d="M68.9269 116.467C71.0234 116.119 72.9644 117.502 73.3123 119.553C73.6327 121.603 72.2319 123.563 70.172 123.911C68.1029 124.231 66.1345 122.839 65.8141 120.789C65.4662 118.738 66.8669 116.779 68.9269 116.467Z" fill="white"/>
	</g>
	<defs>
		<clipPath id="footprint">
			<rect width="150" height="150" fill="white" transform="translate(47 50)"/>
		</clipPath>
	</defs>
</svg>
